<svg width="110" height="60" viewBox="0 0 110 60" fill="none" xmlns="http://www.w3.org/2000/svg">
<g filter="url(#filter0_d_11_1158)">
<path d="M106 13.4006V32.8994C106 39.2709 100.835 44.4359 94.4635 44.4359H82.9323C81.3313 44.4359 79.7397 44.1944 78.2108 43.7193C76.7527 43.2664 75.2367 43.0254 73.7095 43.0043L47.7256 42.6442C45.3843 42.6117 43.0446 42.7613 40.7267 43.0921L40.4697 43.1284C40.8695 44.0755 41.5392 45.6724 41.586 45.8601C41.5889 45.8716 41.5907 45.8832 41.5907 45.8951C41.5907 46.162 40.8795 46.5155 40.1068 46.129C39.4495 45.8005 38.2126 44.1231 37.7766 43.5124L34.4694 43.9841C32.3581 44.285 30.2286 44.4359 28.0962 44.4359H23.5592C15.3187 44.4359 8.63942 37.7561 8.63942 29.5165V16.7833C8.63942 8.54339 15.3187 1.86347 23.5592 1.86347H28.0962C30.2286 1.86347 32.3581 2.01508 34.4694 2.31594L37.7766 2.78714C38.2126 2.17663 39.4495 0.499039 40.1068 0.170662C40.8795 -0.215664 41.5907 0.137882 41.5907 0.404213C41.5907 0.416504 41.5889 0.428211 41.586 0.439331C41.5392 0.627811 40.8695 2.22463 40.4697 3.17113L40.7267 3.208C43.0446 3.53814 45.3843 3.68798 47.7256 3.65579L73.7095 3.2958C75.2367 3.27473 76.7527 3.03357 78.2108 2.58052C79.7397 2.10522 81.3313 1.86347 82.9323 1.86347H94.4635C100.835 1.86347 106 7.02912 106 13.4006Z" fill="#AEC2BB"/>
<path d="M29.8293 49.4303C27.7186 49.7314 25.5885 49.8823 23.4567 49.8823H18.9197C10.6798 49.8823 3.99992 43.2026 3.99992 34.9627V28.5962V22.2297C3.99992 13.99 10.6798 7.3101 18.9197 7.3101H23.4567C25.5885 7.3101 27.7186 7.46112 29.8293 7.76198L36.0872 8.65404C38.4051 8.98476 40.7448 9.13461 43.0861 9.10183L69.07 8.74184C70.5972 8.72077 72.1132 8.4802 73.5713 8.02656C75.1002 7.55185 76.6918 7.3101 78.2927 7.3101H89.8246C96.1954 7.3101 101.361 12.4752 101.361 18.8466V28.5962V38.3456C101.361 44.7171 96.1954 49.8823 89.8246 49.8823H78.2927C76.6918 49.8823 75.1002 49.6409 73.5713 49.1658C72.1132 48.7126 70.5972 48.4718 69.07 48.4508L43.0861 48.0907C40.7448 48.0579 38.4051 48.2077 36.0872 48.5381L29.8293 49.4303Z" fill="#E5E0E9"/>
<path d="M31.1165 8.93507C29.124 8.65118 27.1145 8.50835 25.1021 8.50835H20.821C13.0447 8.50835 6.74113 14.8119 6.74113 22.5883V28.5963V34.6043C6.74113 42.3802 13.0447 48.6838 20.821 48.6838H25.1021C27.1145 48.6838 29.124 48.5414 31.1165 48.2572L37.0215 47.4153C39.2089 47.1034 41.4168 46.9623 43.6265 46.993L68.1476 47.3327C69.5881 47.3526 71.0193 47.5799 72.3949 48.0075C73.8377 48.4558 75.3397 48.6838 76.8505 48.6838H87.7325C93.7458 48.6838 98.6199 43.8095 98.6199 37.7969V28.5963V19.3957C98.6199 13.3831 93.7458 8.50835 87.7325 8.50835H76.8505C75.3397 8.50835 73.8377 8.73664 72.3949 9.18501C71.0193 9.6129 69.5881 9.84002 68.1476 9.85992L43.6265 10.2C41.4168 10.2304 39.2089 10.0894 37.0215 9.77738L31.1165 8.93507Z" fill="#FDFDFE"/>
<path d="M32.9798 48.7357C32.9798 48.7357 34.6603 51.1719 35.4675 51.5755C36.2741 51.9789 37.014 51.5755 36.9472 51.3066C36.8793 51.0375 35.5348 47.8773 35.5348 47.8773L32.9798 48.7357Z" fill="#E5E0E9"/>
<path d="M32.9798 8.45683C32.9798 8.45683 34.6603 6.02064 35.4675 5.61675C36.2741 5.21345 37.014 5.61675 36.9472 5.88601C36.8793 6.15468 35.5348 9.31494 35.5348 9.31494L32.9798 8.45683Z" fill="#E5E0E9"/>
<path d="M7.08701 38.808C6.72176 38.6566 6.32431 38.6166 5.93389 38.6662C7.02555 41.3832 8.93259 43.6827 11.3547 45.2629C10.5206 44.2695 9.82759 43.1578 9.31248 41.9672C8.78626 40.7519 8.31096 39.3153 7.08701 38.808Z" fill="#6C9ED1"/>
<path d="M7.08701 18.3842C6.72176 18.5358 6.32431 18.5756 5.93389 18.5259C7.02555 15.8093 8.93259 13.5095 11.3547 11.9296C10.5206 12.923 9.82759 14.0345 9.31248 15.2251C8.78626 16.4409 8.31096 17.8773 7.08701 18.3842Z" fill="#6C9ED1"/>
<path d="M57.5454 43.2075C52.4483 43.2706 47.7784 43.3968 46.0622 43.3968C40.9188 43.3968 36.0768 47.2295 36.0768 47.2295H56.0235C56.5907 45.9141 57.0643 44.5591 57.5454 43.2075Z" fill="#3F4045"/>
<path d="M70.2227 43.3152C66.9875 43.1552 62.5295 43.1522 58.2799 43.1991C57.9047 44.5566 57.4967 45.9035 57.0197 47.2295H72.1484C71.5567 45.8997 70.9192 44.5915 70.2227 43.3152Z" fill="#3F4045"/>
<path d="M73.2565 47.2295H78.5381C78.5381 47.2295 78.4368 43.9011 71.579 43.3968C71.3922 43.3831 71.1967 43.3703 70.9971 43.3582C71.7903 44.6281 72.6039 45.8862 73.2565 47.2295Z" fill="#3F4045"/>
<path d="M57.5454 13.9849C52.4483 13.9216 47.7784 13.7958 46.0622 13.7958C40.9188 13.7958 36.0768 9.96298 36.0768 9.96298L56.0235 9.96298C56.5907 11.2782 57.0643 12.6333 57.5454 13.9849Z" fill="#3F4045"/>
<path d="M70.2227 13.877C66.9875 14.0374 62.5295 14.0403 58.2799 13.9935C57.9047 12.6361 57.4967 11.2886 57.0197 9.96283L72.1484 9.96283C71.5567 11.2927 70.9192 12.601 70.2227 13.877Z" fill="#3F4045"/>
<path d="M73.2565 9.9629H78.5381C78.5381 9.9629 78.4368 13.2912 71.579 13.7957C71.3922 13.8092 71.1967 13.8221 70.9971 13.8344C71.7903 12.5642 72.6039 11.3063 73.2565 9.9629Z" fill="#3F4045"/>
<path d="M74.605 15.712C74.605 15.712 77.3281 21.1071 77.3281 28.5962C77.3281 36.0849 74.605 41.4806 74.605 41.4806C77.6254 42.5344 81.6736 42.9409 83.8523 43.0909C84.8193 43.1574 85.7313 42.6371 86.1614 41.768C87.2795 39.508 89.2288 34.6924 89.2288 28.5962C89.2288 22.4997 87.2795 17.6846 86.1614 15.4241C85.7313 14.5554 84.8193 14.035 83.8523 14.1018C81.6736 14.251 77.6254 14.6578 74.605 15.712ZM32.7267 12.0291C34.3792 12.2585 37.691 13.0183 41.0743 15.5288C41.5443 15.8777 41.7931 16.4502 41.7428 17.0332C41.5771 18.9701 41.2206 23.7015 41.2206 28.5962C41.2206 33.4911 41.5771 38.2223 41.7428 40.1592C41.7931 40.7423 41.5443 41.3148 41.0743 41.6632C37.691 44.1741 34.3792 44.9336 32.7267 45.1636C32.0237 45.2613 31.3307 44.924 30.9906 44.3018C30.0476 42.5774 28.4122 38.2008 28.4122 28.5962C28.4122 18.9917 30.0476 14.6151 30.9906 12.8901C31.3307 12.2679 32.0237 11.9313 32.7267 12.0291Z" fill="#3F4045"/>
<path d="M98.6076 42.507C98.2202 43.7842 97.5295 44.9684 96.608 45.9345C96.3682 46.1862 96.1082 46.4304 95.9578 46.7439C95.8542 46.9604 95.8192 47.222 95.883 47.4476C97.7344 46.0938 99.0226 44.0191 99.3381 41.6361L99.3137 41.6335C98.9126 41.6464 98.7253 42.1227 98.6076 42.507Z" fill="#EF3725"/>
<path d="M98.6076 14.6854C98.2202 13.4082 97.5295 12.224 96.608 11.2576C96.3682 11.0059 96.1082 10.7624 95.9578 10.4487C95.8542 10.2321 95.8192 9.97045 95.883 9.74451C97.7344 11.0984 99.0226 13.1734 99.3381 15.5564L99.3137 15.5587C98.9126 15.5458 98.7253 15.07 98.6076 14.6854Z" fill="#EF3725"/>
</g>
<defs>
<filter id="filter0_d_11_1158" x="0" y="0" width="110" height="59.7462" filterUnits="userSpaceOnUse" color-interpolation-filters="sRGB">
<feFlood flood-opacity="0" result="BackgroundImageFix"/>
<feColorMatrix in="SourceAlpha" type="matrix" values="0 0 0 0 0 0 0 0 0 0 0 0 0 0 0 0 0 0 127 0" result="hardAlpha"/>
<feOffset dy="4"/>
<feGaussianBlur stdDeviation="2"/>
<feComposite in2="hardAlpha" operator="out"/>
<feColorMatrix type="matrix" values="0 0 0 0 0 0 0 0 0 0 0 0 0 0 0 0 0 0 0.25 0"/>
<feBlend mode="normal" in2="BackgroundImageFix" result="effect1_dropShadow_11_1158"/>
<feBlend mode="normal" in="SourceGraphic" in2="effect1_dropShadow_11_1158" result="shape"/>
</filter>
</defs>
</svg>
